<svg xmlns="http://www.w3.org/2000/svg" fill="currentColor" opacity="70%" viewBox="0 0 778 956">
  <path d="M200 162v5.1a289.4 289.4 0 0 0-.5 15.4 1550.6 1550.6 0 0 0-.3 36.5 15878.8 15878.8 0 0 0-.1 26.1c0 4.3-.1 8.5-.3 12.5a631.3 631.3 0 0 0-.7 20.7c0 2.7-.3 6-.8 10a270.2 270.2 0 0 0-2 27.2 305 305 0 0 1-1.4 22.8 493.4 493.4 0 0 0-1.8 22.4l-.8 7.4-.7 7.3a176 176 0 0 1-1.4 14.4 595.6 595.6 0 0 1-1.6 15.8 278.7 278.7 0 0 1-1.6 15.9l-.7 7.5a257 257 0 0 1-1.5 16.2 1225.1 1225.1 0 0 1-4.2 35.2 3580 3580 0 0 0-3.1 29.8 436.5 436.5 0 0 1-2.8 30.5 6204.7 6204.7 0 0 1-2 20.5l-.7 10a822.3 822.3 0 0 0-2 26.2 378.5 378.5 0 0 0-1.7 32.3 191.8 191.8 0 0 1-.7 16.4 277 277 0 0 0-.4 15.9 985 985 0 0 0-.1 28.9 9703 9703 0 0 0 0 13v44.7a149 149 0 0 0 .5 15.1 167.2 167.2 0 0 0 1.1 14c.3 2 .4 4 .6 6.2a140.5 140.5 0 0 0 1.2 12.1l.6 5.8a142.8 142.8 0 0 0 1.2 11 82 82 0 0 1 1 9.4 81.7 81.7 0 0 1 .9 8.4 95.5 95.5 0 0 1 .5 7.6 71 71 0 0 1 1 13.3 83.4 83.4 0 0 0 .4 11.3 118 118 0 0 1 .2 8.6 198 198 0 0 0 .2 7.8 345.8 345.8 0 0 0 0 7.9 369.3 369.3 0 0 0 .2 14.2 3.3 3.3 0 0 1-6.6 0v-1a128.5 128.5 0 0 1 .1-8.8 369.3 369.3 0 0 0 .1-12.3 155.8 155.8 0 0 1 .2-7.8 570 570 0 0 1 .5-19.8 91.5 91.5 0 0 1 0-6.6 118.8 118.8 0 0 0-.4-10.4 813.5 813.5 0 0 0-.2-7.7l-.5-4.3-.5-4.6c0-1.5-.3-3-.5-4.8a166.6 166.6 0 0 1-1.8-16.8 226.2 226.2 0 0 1-1.8-18.3 187 187 0 0 1-1.5-21l-.2-8.5V704a9633.5 9633.5 0 0 1 .3-50 281.5 281.5 0 0 1 .6-15.4l.4-9a701 701 0 0 1 1.6-32.4 877.2 877.2 0 0 0 2-26.2l.8-10 .9-10.2a4753.4 4753.4 0 0 0 3-30.4c.4-3.5.6-7 .8-10.4a2258.9 2258.9 0 0 0 4.3-39.1 3863.4 3863.4 0 0 0 4-34.3l.6-7.8.7-7.6a426 426 0 0 0 2.3-23.5 585.4 585.4 0 0 0 3-29.8 396.2 396.2 0 0 0 2.6-29.8 341.9 341.9 0 0 0 1.7-31.2 395.3 395.3 0 0 1 1.6-18.8c.4-3.8.7-7 .7-9.8a1206.6 1206.6 0 0 1 .9-33 12932 12932 0 0 0-.6-71.6 289.4 289.4 0 0 0-.4-10.2V162a2.8 2.8 0 1 1 5.7 0Zm529.4-.6v2l-.2 4-.1 5.2a1025.6 1025.6 0 0 0-.5 43.4 6027.4 6027.4 0 0 0 0 17.7v9.5a219617.7 219617.7 0 0 1-.1 16.6v9.4a112102 112102 0 0 1 .2 16.3 1103.2 1103.2 0 0 1 .7 15.4 170 170 0 0 1 .9 12 116 116 0 0 1 .7 14.3 1149 1149 0 0 1 .4 13.9 402.8 402.8 0 0 1 .8 26 3289 3289 0 0 1 .2 60.4v139.2a10599.6 10599.6 0 0 1 .2 15.8 336.6 336.6 0 0 1 .7 21.6l.1 3.6.3 4.2a82 82 0 0 1 .2 7.7 164.5 164.5 0 0 1 0 11 425 425 0 0 0 .3 16.2 725.2 725.2 0 0 1 .1 23.4 121.6 121.6 0 0 0 .4 12.6 669.1 669.1 0 0 1 .3 13l.6 7.7a864.7 864.7 0 0 1 1 14.6 144.7 144.7 0 0 1 1 10.6 241 241 0 0 1 1 8c.2 1.2.4 2.5.4 4.1a46 46 0 0 0 .9 8 119.6 119.6 0 0 1 .7 6.5l.4 3.3c0 1.3.2 2.4.3 3.5.2 1 .3 2.5.3 4.5a79.5 79.5 0 0 0 1 12.1 2128.6 2128.6 0 0 1 1.8 11.2 228 228 0 0 1 1.1 14.4 123.5 123.5 0 0 0 1.1 8.7l.4 4.6a81.4 81.4 0 0 1-.3 17.4v4.3a135.8 135.8 0 0 1 .4 17 7197.5 7197.5 0 0 1 0 15.7v8l-.1 6.9v5.6a4391.8 4391.8 0 0 0 0 15.4 83 83 0 0 0 .6 8.4l.2 2a2.6 2.6 0 0 1-5.2 0l.2-2a513 513 0 0 0 .6-8.4v-10a2246 2246 0 0 0-.7-54c0-1.5-.2-3-.4-4.4a60.9 60.9 0 0 1-.5-8.9 272.1 272.1 0 0 0-.7-9.8 219.8 219.8 0 0 0-1-13.6 182.6 182.6 0 0 1-1.5-18.4 48.6 48.6 0 0 1-.3-6.8l-.2-3a96.6 96.6 0 0 0-1-12 93 93 0 0 0-.7-8 72.6 72.6 0 0 0-.4-6.5 92 92 0 0 0-.8-11.3 112.2 112.2 0 0 0-.6-7.8l-.4-4.3-.5-5-.5-5.7-.5-6.3a905.3 905.3 0 0 0-1.2-16.1c-.2-1.8-.2-3.8-.3-6.2a526.3 526.3 0 0 0-.6-19.6 952.8 952.8 0 0 0-1-30.7 66 66 0 0 1-.3-8.8 194.3 194.3 0 0 0 0-11 327.6 327.6 0 0 0 .2-7.8 619.1 619.1 0 0 0 .3-7.8 211 211 0 0 0-.3-15l-.4-6.5a136.3 136.3 0 0 1-.2-15.9 9600.7 9600.7 0 0 0 0-72.5 12450 12450 0 0 0 0-48.8v-25.6a51365 51365 0 0 1 0-16v-8.4a4766.7 4766.7 0 0 0-.5-45.2 420.6 420.6 0 0 0-.7-16.5 1220.7 1220.7 0 0 0-.4-13.8 117 117 0 0 0-.5-6.7l-.4-6-.4-6.1-.4-6.8a1248 1248 0 0 0-.6-17.4 15765.9 15765.9 0 0 1 0-17.1v-26.1a5857.6 5857.6 0 0 0-.6-61.1 2511 2511 0 0 0-.3-11.2 2.7 2.7 0 1 1 5.3 0ZM742.7 919l-.2-.8-.3-.7a2.7 2.7 0 0 1 5.2-1.4 215.2 215.2 0 0 0 .3 1.6 2.6 2.6 0 0 1-5 1.3ZM179 908.1a5292.9 5292.9 0 0 0 14.6.5 802.4 802.4 0 0 0 23 .2 7770.8 7770.8 0 0 0 51 .2h135.6a237.2 237.2 0 0 1 18.9.8 312.2 312.2 0 0 0 18.3 1.2 115.2 115.2 0 0 0 12.8.7 88 88 0 0 0 12.2.6 626 626 0 0 0 8.6 0l4.7.3a103.6 103.6 0 0 0 9.6.6 332.6 332.6 0 0 0 9.7.2c1.5 0 3.1 0 4.9.2a141.8 141.8 0 0 0 15.2.6 1124.9 1124.9 0 0 0 17.8.3 453 453 0 0 0 17.5.4c2.2 0 4.5.2 6.8.4a223.4 223.4 0 0 0 12.8.8 140 140 0 0 0 17.2.8c1.9 0 3.7.1 5.4.3l5.8.3a188.9 188.9 0 0 1 14 .8l5.7.4 5.9.5a187.2 187.2 0 0 1 12.5.7 339.7 339.7 0 0 0 9.2.3h3.8a95 95 0 0 0 11.7-.6 690 690 0 0 1 16.7-.6l3 .2h3a161 161 0 0 1 12.8.3 282.7 282.7 0 0 0 11.7.3 117 117 0 0 0 6.4.6 84 84 0 0 0 21.4 0 3.4 3.4 0 0 1 0 6.8 550.2 550.2 0 0 1-26.4-1.4 112.5 112.5 0 0 0-16.2.2 508.2 508.2 0 0 1-12.2 0l-3.4-.4-3-.3a175.4 175.4 0 0 1-6.8-.3l-3.5-.2a560 560 0 0 1-15.2-.9 217.1 217.1 0 0 1-8.1-.3 350.4 350.4 0 0 1-23.6-1.4l-5.6-.4a305.6 305.6 0 0 1-14-.8l-5.8-.4-5.3-.2a444.5 444.5 0 0 1-17.4-.9l-6-.4a216 216 0 0 1-6.7-.4 2181.2 2181.2 0 0 1-42-1 427.7 427.7 0 0 1-25-.9 441.1 441.1 0 0 1-23.5-.6 485.6 485.6 0 0 1-12.6-.4 66.4 66.4 0 0 1-7.9-.8 469 469 0 0 0-14-1 297.8 297.8 0 0 1-13.1-.7 240.4 240.4 0 0 0-18.7-.8H281l-13.4.1a17064.6 17064.6 0 0 0-74 .4 655.2 655.2 0 0 0-12 .4l-2.5.1a2.7 2.7 0 0 1 0-5.4Z"/>
  <path d="M196.4 156.2a3154.8 3154.8 0 0 0 6.2.2l4.9.2a679.7 679.7 0 0 0 30.1.4 7135.6 7135.6 0 0 0 20.7 0H274a14026.3 14026.3 0 0 0 17.8 0h7.3a9347.4 9347.4 0 0 0 30.6 0h66a368.5 368.5 0 0 1 24.9.7 769.3 769.3 0 0 0 21.7.6l6.8.4a153.1 153.1 0 0 1 13.6.9l5.4.3a119.3 119.3 0 0 1 12.4.8l5.2.3 5.4.3a127.5 127.5 0 0 0 15.8.8 86.4 86.4 0 0 1 11.2.8l4.5.5a98.1 98.1 0 0 1 9.5 1 102 102 0 0 1 9.6.8 138.3 138.3 0 0 0 8.6.5 95.7 95.7 0 0 0 11.2.4 272.5 272.5 0 0 1 10 .2 867.8 867.8 0 0 0 24.3-.2 439.5 439.5 0 0 1 7 0 427.5 427.5 0 0 0 21.8.3 156.5 156.5 0 0 0 12-.1 822 822 0 0 0 15-.4 1006.7 1006.7 0 0 0 18.5-.6 87.8 87.8 0 0 0 7.8-.4l2.9-.2a50.2 50.2 0 0 0 8.5-.8 299.7 299.7 0 0 0 18.5-2.5l3-.3 3-.3a161.7 161.7 0 0 1 6.5-.4c1 0 1.6 0 1.9-.3l.4-.3a3.7 3.7 0 0 1 2.8 6.9l-2.9.5c-1.9.4-3.4.6-4.4.6l-3.1.1c-1 .2-2 .2-3 .2a124.9 124.9 0 0 0-6 .2l-3.4.3c-1.3 0-2.6.1-3.8.3a163.1 163.1 0 0 1-13.8 1.5 96.5 96.5 0 0 1-10.2.7 60.3 60.3 0 0 1-9 0 1149.1 1149.1 0 0 1-25.7-.8 827.3 827.3 0 0 0-20.4-.1 2320.7 2320.7 0 0 0-24 .2 292.7 292.7 0 0 1-6.5-.2 177.1 177.1 0 0 0-8.6 0 144 144 0 0 0-9.1 0 5516.2 5516.2 0 0 0-10.1 0 95.9 95.9 0 0 1-11.4-.9l-4-.4a169.8 169.8 0 0 1-14.2-1.1 97.4 97.4 0 0 1-9.5-1 115.9 115.9 0 0 0-20.6-1.4 273.6 273.6 0 0 1-16.2-1 171.9 171.9 0 0 1-11.4-.7 119 119 0 0 0-11.6-.7 151.4 151.4 0 0 0-13.6-.9c-2.5 0-4.8-.2-6.8-.3a861.4 861.4 0 0 1-33.2-1l-13.2-.3H299a14414.8 14414.8 0 0 1-16.7 0h-24a14096.1 14096.1 0 0 0-45.3.4l-5.5.2-4.9.1-4.2.2h-2a2.6 2.6 0 1 1 0-5.2Zm114 86.3v1.7a92.6 92.6 0 0 1-.4 8 1022.5 1022.5 0 0 1-.4 25.2 96 96 0 0 0 .6 11 189.1 189.1 0 0 1 .8 17.2 153.4 153.4 0 0 1 0 10 521.8 521.8 0 0 0 .1 6.4v3l.2 3v3a1505.6 1505.6 0 0 1 .1 9.7v2a3.8 3.8 0 0 1-7.6 0v-2a848.1 848.1 0 0 1 0-9.8l.1-3V325l.2-3a147 147 0 0 0 0-9.9 465 465 0 0 1 .6-19.9 188.7 188.7 0 0 1 .8-11.2 95.9 95.9 0 0 0 0-8.4 1537.4 1537.4 0 0 0-.7-28.4v-1.7a2.8 2.8 0 0 1 5.6 0ZM308 339a3520.4 3520.4 0 0 0 6.1.9 219.5 219.5 0 0 0 18.6 1 173 173 0 0 1 11.4-.6 1400.2 1400.2 0 0 1 29.6-.8h3.6a762 762 0 0 1 24.3.1 699.3 699.3 0 0 0 27.8 1.4c1.3 0 2.8.2 4.3.4l4.8.4a144.9 144.9 0 0 1 10.7.8 162.3 162.3 0 0 1 18 1.9 49.1 49.1 0 0 1 7.3 1c1.2.1 2.6.3 4.4.3a139.4 139.4 0 0 1 9.4.6 124.3 124.3 0 0 0 10.2-.2 104.5 104.5 0 0 1 9 0l4.2.1a63.2 63.2 0 0 1 10.7.7 167.1 167.1 0 0 0 25.5.2 759.8 759.8 0 0 1 53 1.7l4.5.6a148.2 148.2 0 0 1 12 1l3.8.1h2a3.5 3.5 0 0 1 0 7l-1.5-.1a2434.4 2434.4 0 0 0-15.2-.9l-4-.5a36 36 0 0 0-7.2-.7 94.7 94.7 0 0 0-7.8-.3l-3.3-.3-3.5-.2a273.8 273.8 0 0 1-7.1-.1 35 35 0 0 1-3.3-.4l-3.4-.2a2073.3 2073.3 0 0 1-29.7-.2l-3.5-.1a317.3 317.3 0 0 1-22-1.4h-4.2l-4.5.1a100.2 100.2 0 0 1-15-.6c-1.4 0-3-.3-4.4-.6a51 51 0 0 0-6.7-1 80 80 0 0 1-6.6-1.2 167.1 167.1 0 0 0-7.1-1.2 60 60 0 0 0-8.9-1.2 145.4 145.4 0 0 0-10.7-.6 123.8 123.8 0 0 0-10.2-.6 113.3 113.3 0 0 0-8.4-.4 48.4 48.4 0 0 0-9 0 433.5 433.5 0 0 0-19 1 961.6 961.6 0 0 0-12.7 0 882.5 882.5 0 0 0-7 0h-3.6a4959 4959 0 0 1-37-.6 71.9 71.9 0 0 0-8 .6 1566.3 1566.3 0 0 0-19.4 1l-2.3-.3a3.8 3.8 0 1 1 1-7.6Zm311.7 15v-1.2a168.5 168.5 0 0 0-.8-18.9 164.3 164.3 0 0 1-.2-8.3l.1-4.8a155.3 155.3 0 0 0 0-10.5l-.1-3.1a773.5 773.5 0 0 1-.2-33.7 3248.3 3248.3 0 0 1-.2-22.2c0-1-.8-1.4-2.4-1.2l-4.8.2a1367.4 1367.4 0 0 1-16.4-.5 350.3 350.3 0 0 0-13.8 0 160.1 160.1 0 0 1-8.4-.2 1108 1108 0 0 0-14 0 295.7 295.7 0 0 0-21.4-.9 52.3 52.3 0 0 1-7-1 2330.1 2330.1 0 0 1-14.8-2.6 106.4 106.4 0 0 0-29.9-5.6 47 47 0 0 1-7-.7 6573.8 6573.8 0 0 1-31.6-4.4 49.1 49.1 0 0 0-6-.7l-4.1-.4a51 51 0 0 1-4-.4 56 56 0 0 0-4.4-.4 67.7 67.7 0 0 1-17.2-3 72.6 72.6 0 0 0-8.3-1.7 312.2 312.2 0 0 0-9.3-1.6 243 243 0 0 0-12.6-1 150.7 150.7 0 0 1-11.3-.4 86.1 86.1 0 0 0-7.2 0l-3 .2a512.7 512.7 0 0 1-15 .4c-1 0-2 .1-2.9.4a226.2 226.2 0 0 0-6.3 1.4l-3 .5a14.8 14.8 0 0 0-6.1 2.8c-1 .8-1.9 1.4-3 2l-1.5.7a3.8 3.8 0 0 1-3.5-6.8h.9c.5-.2 1.3-.6 2.3-1.4l2.7-2.1c.8-.6 1.7-1 2.5-1.4a29 29 0 0 1 9.2-2 84.8 84.8 0 0 0 5.8-.8c.9-.2 1.9-.2 2.9-.2a800.8 800.8 0 0 0 15.1.4 265.2 265.2 0 0 1 10.3.5 104.2 104.2 0 0 1 11.3.7 112.6 112.6 0 0 0 7.5.1 103.6 103.6 0 0 1 27.6 4.6 78.4 78.4 0 0 0 11.1 2l4.4.4a206.9 206.9 0 0 0 9.7 1 101 101 0 0 0 12 1.1 52 52 0 0 1 6.5.7 89.2 89.2 0 0 1 7 .7l4.1.3a65.8 65.8 0 0 1 8.6 1 204.7 204.7 0 0 1 7.3 1.1 62.5 62.5 0 0 1 7.7 1.3 119.7 119.7 0 0 0 11.5 2 91 91 0 0 0 8.7 1.6 73.7 73.7 0 0 1 7.4 1.6 1669.9 1669.9 0 0 1 14.6 2.3 66.2 66.2 0 0 0 8 .4 366.8 366.8 0 0 1 14.2 1 52.6 52.6 0 0 0 8.6.3 978 978 0 0 0 48-.8h3.7c1 0 2.2.2 3.4.7 1.3.4 2.1 1 2.6 1.9.4.8.7 1.7.7 2.8a55.2 55.2 0 0 1 0 6 722.2 722.2 0 0 0-.1 22.2 165.5 165.5 0 0 0 0 9.2 327.7 327.7 0 0 0 0 12.8 752.1 752.1 0 0 1-.1 6.4v3.1a2438.4 2438.4 0 0 1-.2 10.7 229.3 229.3 0 0 0 .8 20 57.8 57.8 0 0 0 .4 6.8 43.4 43.4 0 0 1 0 7.5v1.3a3.5 3.5 0 0 1-7-.3Z"/>
  <path d="M320 233h-1.4a267 267 0 0 1-4.5 0 3.4 3.4 0 1 1 0-6.6 1853.8 1853.8 0 0 0 5.9 0 3.3 3.3 0 1 1 0 6.6Zm182.5 309.5h-1.9a58 58 0 0 1-15.5-2.8 305.4 305.4 0 0 0-22.1-5.5 382.5 382.5 0 0 1-9.9-2.4 231.2 231.2 0 0 1-7.2-1.1c-1.6-.2-3-.4-4.4-.4a61 61 0 0 1-7.4-.5c-1 0-2 0-3.3-.2l-3.8-.2a1915 1915 0 0 1-14 .2h-4a2486.4 2486.4 0 0 1-20.8-.2l-4-.3a51.9 51.9 0 0 0-15.8 1 51 51 0 0 0-7 1.5 58.8 58.8 0 0 0-6.8 1.9 35.6 35.6 0 0 0-9.2 3.9 48 48 0 0 0-7.7 5.2 170 170 0 0 1-5.8 4l-2.5 2a53.9 53.9 0 0 0-13.8 23.3 67.5 67.5 0 0 0-3.5 13.1 355.6 355.6 0 0 1-3.3 19.6 233 233 0 0 0-1.4 12 624.3 624.3 0 0 0-1 43.4 364.5 364.5 0 0 1 .5 18.5 1948.3 1948.3 0 0 1 .3 7.5 44.4 44.4 0 0 0 4.6 15.2 149.2 149.2 0 0 0 4.8 10 124.2 124.2 0 0 0 4.3 8.6l1.8 2.7 1.8 2.6a32.5 32.5 0 0 0 6 8.2 89.7 89.7 0 0 1 3.8 5 36.4 36.4 0 0 0 4.1 4.6l2.5 2.4a49.6 49.6 0 0 1 5.2 5.9 96.1 96.1 0 0 0 5.3 6.6 88.5 88.5 0 0 0 11.5 11.8l2.9 2.3a15 15 0 0 0 3 1.8l3.1 1.7 3.6 1.7a163.7 163.7 0 0 1 19.8 10.2 483.2 483.2 0 0 0 6.4 3.6 235 235 0 0 0 9.7 5.2 100.8 100.8 0 0 0 32.8 9.5 147.4 147.4 0 0 1 6.7.9 48.2 48.2 0 0 0 6.8.2h3.3a240 240 0 0 1 14.5 0 440.8 440.8 0 0 1 11.2-.1 1380.8 1380.8 0 0 1 12.6-.3 245.8 245.8 0 0 1 11.8-.7 389.6 389.6 0 0 1 7.2-1 77.2 77.2 0 0 1 6.6-1 78.3 78.3 0 0 0 7-1.7c1.3-.2 2.5-.5 3.5-.9a610.3 610.3 0 0 1 19.8-6.4l3.7-1.3c.9-.4 2-1 3.5-1.5a83.7 83.7 0 0 0 8.5-3.8 102.2 102.2 0 0 1 13.3-5.3 100.6 100.6 0 0 1 7.6-2.9 51 51 0 0 0 17.3-11.3 108 108 0 0 0 3.9-6 46.2 46.2 0 0 0 3.3-10l.8-3 .8-3.8a45.6 45.6 0 0 1 4.7-11.3l1.5-2.6a90.8 90.8 0 0 0 3.3-5.7 44.6 44.6 0 0 0 3.4-5.8 161.5 161.5 0 0 0 8.6-20.6 108.4 108.4 0 0 0 4.8-29.3 553.2 553.2 0 0 0 0-17.5 723.9 723.9 0 0 1-.4-15.3 50.2 50.2 0 0 0-1.9-10.2 143.7 143.7 0 0 0-1.8-6.9 38.3 38.3 0 0 0-6.4-12l-1.8-2.5-1.8-2.5a18 18 0 0 0-1.9-2.7 350.2 350.2 0 0 0-4-4.6l-1-1.1a3.8 3.8 0 1 1 5.4-5.2 3805.2 3805.2 0 0 0 4.9 5.5c.8.9 1.4 1.9 2 3l1.9 2.8a22 22 0 0 1 1.7 2.6 39.6 39.6 0 0 0 3.1 5 45.7 45.7 0 0 1 4.6 10 49 49 0 0 1 2 6.9 108.5 108.5 0 0 1 1.5 7.5 91.4 91.4 0 0 1 .2 19.7 572 572 0 0 0-.2 20.2 46 46 0 0 1-.4 5l-.4 3.6c0 1-.2 2.1-.4 3.7a163.7 163.7 0 0 1-2.9 13 149.3 149.3 0 0 1-1.8 7.3 169.5 169.5 0 0 1-5.1 13.7 207.5 207.5 0 0 1-5.4 9.6 48.6 48.6 0 0 0-3.5 5.7 42.3 42.3 0 0 0-3.2 5.7c-.6 1-1 2-1.5 3.1a12 12 0 0 0-1 3.5 3666.3 3666.3 0 0 0-2 8l-1 3.8a30.3 30.3 0 0 1-17.2 20.5c-1 .6-2.2 1.1-3.6 1.7a93.4 93.4 0 0 0-7.3 3.3 146.7 146.7 0 0 0-15.3 7.2 495 495 0 0 0-17 7.4 29.6 29.6 0 0 1-6.8 2.6 129.3 129.3 0 0 0-11.6 4.2 672 672 0 0 0-7.7 2.4 84.4 84.4 0 0 1-11 2.4c-1.3.3-2.5.5-3.4.5a74.3 74.3 0 0 0-7.2.9l-4.3.4a149.4 149.4 0 0 0-9.8 1c-1.5.2-3 .2-4.4.2a976.3 976.3 0 0 1-19.6-.1 466.5 466.5 0 0 0-14.5 0 324.7 324.7 0 0 1-6.9-.3 27 27 0 0 1-3.2-.5 106.1 106.1 0 0 0-6-1.3 283 283 0 0 0-8-2 187.5 187.5 0 0 0-6.4-2 78.9 78.9 0 0 0-7.8-2.4 87.4 87.4 0 0 1-8.2-2.7A107.7 107.7 0 0 1 404 798a258.6 258.6 0 0 0-8.6-3.8 1996.1 1996.1 0 0 0-22.2-10.4l-3.6-1.8-4-2.1c-1.4-.7-2.6-1.5-3.6-2.3a154.1 154.1 0 0 1-22.6-23.3 30.7 30.7 0 0 0-4.3-4.5 63.1 63.1 0 0 1-7-8 69.2 69.2 0 0 0-4.8-6.4 42.2 42.2 0 0 1-4-6.3c-.5-1-1.2-2-2-3.2a39.5 39.5 0 0 1-3.4-6 118 118 0 0 0-3-5.6l-2.2-3.6a34.9 34.9 0 0 1-3.4-6.8 46 46 0 0 1-3.2-10.2 55.5 55.5 0 0 1-1-15.2 1347 1347 0 0 0 .3-13.5 363.8 363.8 0 0 1 .5-12.4 81 81 0 0 0-.2-8.6 290.7 290.7 0 0 1-.3-12.3 218.2 218.2 0 0 0-.6-11.8 264.5 264.5 0 0 1 0-7.9 43.3 43.3 0 0 1 .7-7.8 98 98 0 0 1 1.7-10l.8-4.1a65.2 65.2 0 0 0 2-10.5c.1-1 .4-2 .7-3a130.4 130.4 0 0 0 2-6.5 50.8 50.8 0 0 1 2.2-6.5 99.5 99.5 0 0 1 3-7.2 37 37 0 0 1 5.6-8 81.6 81.6 0 0 1 4-4.3 412 412 0 0 1 11.8-8.7 34.3 34.3 0 0 1 6.4-4 38.8 38.8 0 0 1 17.2-5 319.6 319.6 0 0 1 11.8-1.4 760.6 760.6 0 0 1 13.4-1.7 114 114 0 0 1 10.5-.4 246.3 246.3 0 0 1 8.6 0h4a1075.8 1075.8 0 0 0 17.7.1 144.1 144.1 0 0 1 6.3.6l3.3.5 3.6.6 4.2.7a50 50 0 0 1 8.3 2l3.3.8a168.2 168.2 0 0 1 10 2.4 195 195 0 0 0 11 2.4 556.4 556.4 0 0 1 16.5 3.6 96 96 0 0 0 11 .4 2.8 2.8 0 1 1 0 5.5Z"/>
  <path d="m623.2 594.8-1-1.1a91.1 91.1 0 0 1-3.7-4.6l-2.3-2.4a64.6 64.6 0 0 1-7-7.9 39.7 39.7 0 0 0-13.8-11.3 13.8 13.8 0 0 0-5.8-2 56.6 56.6 0 0 0-6.3-1c-1 0-2-.3-3-.6l-3-.6c-1-.2-2-.5-2.8-.9l-2.9-1a112.5 112.5 0 0 1-12.9-6.8 80.8 80.8 0 0 1-5.3-2l-3.2-1a72.2 72.2 0 0 1-10-3 271.5 271.5 0 0 0-6.6-2.2 61.2 61.2 0 0 0-16.3-4.6l-1 .4a3.8 3.8 0 0 1 .1-7.7h1.2c.7 0 1.6 0 2.7.2l3.2.8a46.4 46.4 0 0 0 6 1.5 44.3 44.3 0 0 1 7 2.5c1.3.6 2.5 1 3.5 1.3a50 50 0 0 1 7.1 2.2 65.8 65.8 0 0 0 7.3 2 85 85 0 0 1 6.3 2.3 152.4 152.4 0 0 1 12.8 6.7 40.6 40.6 0 0 0 13.5 3.8l3 .5c1 0 2 .3 3 .7a52.3 52.3 0 0 1 6 2.9 86.9 86.9 0 0 1 7.5 5.2l4 3a15 15 0 0 1 3.2 2.8 292.3 292.3 0 0 1 5.6 6.5l2.5 2.6 2 2.2a176.7 176.7 0 0 1 3.8 5l1 1a3.5 3.5 0 0 1-5.4 4.6Zm-129.2 38h-1.3a544.4 544.4 0 0 0-10 .1 61.5 61.5 0 0 1-8.3-.5 142.4 142.4 0 0 1-7.8-.6 48 48 0 0 1-7.3-.8l-3.6-.2a211.6 211.6 0 0 0-14.4.5 81.1 81.1 0 0 0-7 2 61.7 61.7 0 0 0-6.7 3.2 28.3 28.3 0 0 0-5 4.4 323 323 0 0 1-4 5.2c-.8 1-1.3 1.9-1.8 2.7a67.6 67.6 0 0 0-2.7 10.2 32 32 0 0 1-.4 3.3 53.7 53.7 0 0 0-.8 12.8v3.2c0 1 .3 2 1 3l1.7 2.7a86.3 86.3 0 0 0 10.7 14.2l2.1 2.2a35.8 35.8 0 0 0 9 6.6 57 57 0 0 0 6 3.1c1 .4 2 .7 3.2.9l3.6.2a464.3 464.3 0 0 0 13.2 0l4.1.1c1.6 0 3 0 4.6-.2a242.9 242.9 0 0 1 18-1 20 20 0 0 0 4-.4 31 31 0 0 1 3.4-.4A140.8 140.8 0 0 0 509 707a36.4 36.4 0 0 0 8.3-3.4 32.1 32.1 0 0 0 10.4-8.2 13.2 13.2 0 0 0 2.4-6l.3-3c.2-1 .2-2 .2-3.1a124 124 0 0 1-.1-9.5 1363.8 1363.8 0 0 1-.2-6.7l-.5-3.3c-.1-1-.4-2-.8-3l-1.3-2.8a26.1 26.1 0 0 0-4.3-5.6 84.8 84.8 0 0 1-4.4-4.1l-3-2.3a12 12 0 0 0-3.3-2c-1-.3-2-.8-2.8-1.4l-1.3-1a4 4 0 0 1 5-6l.3.4c.2.2.8.6 1.9 1a27.7 27.7 0 0 1 5.9 3.5 71.4 71.4 0 0 1 4.8 4 106 106 0 0 1 5.8 6.5c.7.8 1.3 1.7 1.8 2.6.4 1 1 1.9 1.5 2.9s1 2 1.3 3.3a39.5 39.5 0 0 1 1 6.7c.2 1 .3 2 .3 3.1a688.3 688.3 0 0 1-.3 16l-.4 3.4c0 1-.3 2-.5 3-.3 1-.6 2-1 2.8a8 8 0 0 1-1.1 2.7 17.6 17.6 0 0 1-4 4.6 1157.9 1157.9 0 0 1-5.5 4.3c-.8.6-1.6 1-2.5 1.5a344 344 0 0 1-10.9 4.7l-4 1.1-4 1c-1 .4-2.4.6-4.1.8a362.2 362.2 0 0 0-7.6 1h-3.6a92.4 92.4 0 0 0-13.5 1l-3.8.4a463.9 463.9 0 0 1-24.3 0c-1 0-2.3-.3-3.5-.7a42.8 42.8 0 0 1-10.7-5.9 62.3 62.3 0 0 1-11-8.7 71.6 71.6 0 0 1-15.3-19c-.5-1.2-.9-2.4-1-4a35 35 0 0 1-.3-7 157.3 157.3 0 0 1 .3-6.7 65.6 65.6 0 0 1 1-6.5l.4-3c0-1 .2-2 .5-3l.7-2.8a31.4 31.4 0 0 1 5-9.5 75.3 75.3 0 0 1 4.9-6l3.1-2.9c1.1-.9 2.2-1.6 3.2-2.2a72 72 0 0 1 13.3-5.3l3.7-.8c1.4-.3 2.6-.4 3.6-.4a218 218 0 0 1 16.7.7 52.2 52.2 0 0 0 6.5.8l3.3.3a129.8 129.8 0 0 0 15.3.6 211.8 211.8 0 0 1 6 .1h1.2a3.3 3.3 0 1 1 0 6.7ZM188.1 165l-1-.4c-.7-.2-1.7-.6-3-1.3a15 15 0 0 1-4.3-2.8 109.3 109.3 0 0 1-10-9.1 151 151 0 0 0-15.1-12.3 67.6 67.6 0 0 0-7-5 150.5 150.5 0 0 0-7.2-5.1 13 13 0 0 1-2.4-2.3 62.8 62.8 0 0 1-4-5.2 369.4 369.4 0 0 0-7.3-9 87 87 0 0 0-5-5.8l-2.1-2.6-2.2-2.2A33.3 33.3 0 0 1 113 98a16 16 0 0 1-2.1-2.3c-.7-.9-1.5-1.6-2.3-2.2a48.7 48.7 0 0 1-5-3.6 204 204 0 0 1-6-5.2A1002 1002 0 0 1 91 78a203.8 203.8 0 0 0-12.4-10.8 2.7 2.7 0 0 1 3-4.4l.7.5 2.1 2.1a47.7 47.7 0 0 0 6 5.4 388.6 388.6 0 0 1 11.2 8.8l4.4 3a106 106 0 0 1 7.3 5.2 36.3 36.3 0 0 1 6.1 6.8c.7.8 1.4 1.5 2.2 2 .8.7 1.6 1.4 2.3 2.3a2376.3 2376.3 0 0 1 14.4 17.6 56.3 56.3 0 0 1 4 6.2c.4.8 1 1.6 1.6 2.3l2.7 2.4a813.7 813.7 0 0 1 7.4 6.2 156.2 156.2 0 0 0 6.6 4.8 485.1 485.1 0 0 1 22.8 17 20 20 0 0 0 6.8 3.8 3.1 3.1 0 0 1-2 5.8ZM82.7 65.5v.8l-.4 1.8-.1 1a2.8 2.8 0 0 1-5.6-1l.2-1 .5-1.8.2-.9a2.7 2.7 0 0 1 5.2 1.1Zm641.4 94.4-1-1a200 200 0 0 0-2.9-2.7 29.2 29.2 0 0 1-3-3.2 71.5 71.5 0 0 0-4-4.8 62.5 62.5 0 0 0-3.7-4.4l-2.4-2.8a130.8 130.8 0 0 1-12.5-15.7c-.7-.7-1.3-1.4-1.9-2.3l-2.4-3.2-3-4a49.8 49.8 0 0 0-5.2-6.5l-2.2-2.7c-.8-1-1.7-2-2.7-2.9A97.2 97.2 0 0 1 664.6 91c-.8-.7-1.4-1.6-2.1-2.5a59.1 59.1 0 0 0-4.4-6 41 41 0 0 0-6.6-7.6 62.2 62.2 0 0 1-4.8-5.2l-2.6-2.3a47.7 47.7 0 0 1-5.5-5.1 97.5 97.5 0 0 0-7.5-6l-2.5-2.2a38.3 38.3 0 0 0-4.6-4.3l-2-2.2A158.4 158.4 0 0 0 611.7 36l-1.2-.9a3.9 3.9 0 0 1 4.9-6 1964.2 1964.2 0 0 1 7 7.2l1.9 2.3a206.6 206.6 0 0 1 4.3 5 21 21 0 0 0 2.2 2.4c.7.6 1.5 1.3 2.2 2.2.7.8 1.5 1.6 2.3 2.1a59 59 0 0 1 5.2 4.3c1 .8 1.7 1.5 2.5 2l2.4 2.5a130 130 0 0 1 7.5 7 57.4 57.4 0 0 0 4.8 5 175.6 175.6 0 0 1 4.7 5.2 630 630 0 0 1 8.7 11.6 1842.1 1842.1 0 0 0 12.2 13.4 67 67 0 0 1 5.8 7 146.8 146.8 0 0 1 7.5 9.6 527 527 0 0 0 5 6.4 87.3 87.3 0 0 1 3.6 5.4 374 374 0 0 1 4.7 5.9 140.3 140.3 0 0 1 6.5 7.8 117 117 0 0 0 10.8 11.3l1 1a3 3 0 0 1-4.2 4.3ZM165 901.2l-.6-2a36.2 36.2 0 0 0-2.9-7.8 39.1 39.1 0 0 0-3.8-6.9 134.7 134.7 0 0 1-4-6.5l-1.8-2.8a474 474 0 0 1-10.3-13.8 519.6 519.6 0 0 1-6.2-7.4 286.7 286.7 0 0 1-6.2-6.3 108.9 108.9 0 0 0-13.5-11.5 131.5 131.5 0 0 1-8.2-6.5 41 41 0 0 1-2.7-2.3 26 26 0 0 0-3.2-2.3 2205.1 2205.1 0 0 1-8.8-6 84.2 84.2 0 0 1-10.6-8.8 50.7 50.7 0 0 1-5.1-5 34 34 0 0 1-4.3-4.8 531.3 531.3 0 0 1-5-6.6 984.5 984.5 0 0 0-5-7.2 938.5 938.5 0 0 1-5-5.8 85.2 85.2 0 0 0-6.5-6.4l-2-2.2a2646 2646 0 0 0-9.8-12.5l-2-2.3a36.8 36.8 0 0 0-3.3-3.7 3.7 3.7 0 0 1 5.3-5.1 1496.2 1496.2 0 0 0 6.7 7.5 88 88 0 0 1 8.3 10.6l2.1 2.6a3072.7 3072.7 0 0 0 6.3 6.6 105.3 105.3 0 0 1 9.2 12 59 59 0 0 0 5.1 6.7 77.5 77.5 0 0 0 7.4 8 64 64 0 0 0 7 7 135 135 0 0 1 5.2 4.8 729.3 729.3 0 0 0 13.5 11.5 256.3 256.3 0 0 0 12.8 8.9 1193.5 1193.5 0 0 0 6.5 5 60.4 60.4 0 0 1 10 10.3 261.4 261.4 0 0 1 4.8 5.9l2.4 3.1a2090 2090 0 0 0 16.9 26.6l2 3.7a436 436 0 0 0 1.9 4l1.8 4.1.7 2a2.7 2.7 0 0 1-5.1 1.6ZM40.2 752.8l-.3.7-.3.6a3.7 3.7 0 0 1-6 1 3.7 3.7 0 0 1-.7-4.1l.3-.7.3-.6a3.7 3.7 0 1 1 6.7 3.1Z"/>
  <path d="m29.2 750.7.1-3.8a695.4 695.4 0 0 0 .7-32.6c0-4.2.2-8 .5-11.4a889.8 889.8 0 0 0 2-22.1 671 671 0 0 0 2.3-29.5 554.6 554.6 0 0 0 .4-26.9 3111 3111 0 0 0-.1-26.7 6308.8 6308.8 0 0 1-.5-19.3 990.6 990.6 0 0 0 0-7 108.2 108.2 0 0 0 .1-7.8c0-1.1 0-2.5.2-4a73 73 0 0 0 .5-11.3 146.8 146.8 0 0 0-.3-9 319.5 319.5 0 0 1 .1-22.7 166.1 166.1 0 0 0-.4-12 246.1 246.1 0 0 1 0-9.8c0-1.2.3-3.4.7-6.5a2511.8 2511.8 0 0 1 9.6-64.6 117 117 0 0 0 .9-9.4 57.2 57.2 0 0 0 .5-8 122.3 122.3 0 0 0 0-7.4 46.6 46.6 0 0 1 .4-7.4V388l.3-3.7a84.9 84.9 0 0 0 .7-11.6c0-1.2 0-2.4.2-3.8a64.5 64.5 0 0 0 .5-10.8l.3-4.6a129.5 129.5 0 0 0 .8-12.8 179.7 179.7 0 0 1 .7-13.6 438.3 438.3 0 0 0 .6-12 216.8 216.8 0 0 0 .7-13.9 226 226 0 0 0 .8-13.8 229.2 229.2 0 0 0 .9-14.3 208.8 208.8 0 0 0 .5-12.1 84.5 84.5 0 0 1 .5-8.3 117.2 117.2 0 0 0 0-6.5c0-1 0-2.1.2-3.2a60.5 60.5 0 0 0 .2-6l.2-3.2a53.4 53.4 0 0 0 .6-5.8l.3-4a52.3 52.3 0 0 1 .8-8.9 147.9 147.9 0 0 0 .8-7.3 75.7 75.7 0 0 1 1.2-7 61 61 0 0 0 .7-6.9 167.1 167.1 0 0 1 1.2-8.7 52.8 52.8 0 0 0 .4-8 1031.8 1031.8 0 0 1 .5-11.5 284.8 284.8 0 0 1 .3-15 470.1 470.1 0 0 0 .4-13 398.1 398.1 0 0 0 .9-16.3 118.5 118.5 0 0 0 .1-18.2c0-1 0-2 .2-3a318.9 318.9 0 0 0 1-9.4c0-1.1.2-2.4.5-3.9l.6-4.2a33.3 33.3 0 0 1 1-7.3l.2-3.2c0-1.1.3-2.4.6-3.7l.5-2a3.6 3.6 0 0 1 6.8 2.2l-.4 1.4-.5 3c0 1.1-.2 2.1-.4 3.1A115.7 115.7 0 0 0 71.8 87a102 102 0 0 0-1.3 6.4 357.4 357.4 0 0 0-2.8 17 186.9 186.9 0 0 0-1 11.3 520.6 520.6 0 0 1-.7 23.1 507 507 0 0 0 .4 16.3 125.5 125.5 0 0 1-.3 11.8 96.5 96.5 0 0 1-.8 9 160 160 0 0 0-.5 8.4 64 64 0 0 1-.7 7.4 237.4 237.4 0 0 1-.7 7.6 2262.3 2262.3 0 0 1-1.2 9 108.1 108.1 0 0 0-1 8.7c0 1-.1 2.3-.4 4.1a78.2 78.2 0 0 0-.9 7.1 303.3 303.3 0 0 1-6.3 106.6 670.2 670.2 0 0 1-.8 24.8 127.9 127.9 0 0 1-.6 7.2 382.5 382.5 0 0 0-.2 8 59.9 59.9 0 0 1-.6 7.4 449.8 449.8 0 0 1-2 26.4 122.3 122.3 0 0 1-2.4 21 765.1 765.1 0 0 0-6 53 67.2 67.2 0 0 0-.2 9.5 65.2 65.2 0 0 1-.1 6.6 773 773 0 0 1-.4 11.9 68.2 68.2 0 0 0 .2 7.4 9444.5 9444.5 0 0 1-.2 15.3 266.6 266.6 0 0 1-.5 12.5 1186.2 1186.2 0 0 1-.5 11.8 219.7 219.7 0 0 0 .1 14.8 297.4 297.4 0 0 0-.1 9.7 562.5 562.5 0 0 1-.6 17.1 963.5 963.5 0 0 0 0 25.1 1039.7 1039.7 0 0 1-.8 30 348.2 348.2 0 0 1-1.7 20.8 532.6 532.6 0 0 0-2.2 33.2 940.5 940.5 0 0 0 .8 36.4 2.8 2.8 0 0 1-5.6 0ZM75 59h10.1c2.3-.1 4.4-.2 6.2-.5a97.7 97.7 0 0 1 11.1-1A559 559 0 0 0 116 56a149 149 0 0 1 10.7-1.5 104 104 0 0 1 7.3-1.2l3.6-.5a86.4 86.4 0 0 0 7.8-.8 86.4 86.4 0 0 1 9.9-.2l4.2-.3a100 100 0 0 1 13.6-.5 14007.1 14007.1 0 0 0 23.7-.4l3.4-.2a60.2 60.2 0 0 1 7.8-.5c1.4 0 2.7 0 4-.2a85.4 85.4 0 0 1 12.6-.6c1.4 0 2.8 0 4-.2a89.7 89.7 0 0 1 8.5-.5 154.4 154.4 0 0 0 10.7-.5 8820 8820 0 0 1 9.8-.4 417.2 417.2 0 0 0 14-1 285.7 285.7 0 0 0 22-1.7 8908.7 8908.7 0 0 0 25.3-2.9 147.7 147.7 0 0 1 11.4-1.4 67.7 67.7 0 0 0 9-1.4c1.7-.3 3-.5 3.9-.5a85.8 85.8 0 0 0 10-1.2 49 49 0 0 1 8.6-.4c1.2 0 2.4 0 3.5-.2a52.3 52.3 0 0 1 7.5-.3 306.1 306.1 0 0 1 16.9.1 651 651 0 0 0 21 .3 5141.3 5141.3 0 0 0 74-.4 3577 3577 0 0 0 13.5-.7 107 107 0 0 1 12.5-.8 735.5 735.5 0 0 1 26-.6l4.2-.3a101.6 101.6 0 0 0 9-.4c1.2 0 2.5 0 4-.2a222.5 222.5 0 0 1 11.5-1.3 219.5 219.5 0 0 0 10.3-1.4 112.7 112.7 0 0 0 10-1.4 36.8 36.8 0 0 1 6.3-.3 818 818 0 0 1 6.5-.2l2-.2a3.8 3.8 0 0 1 1.2 7.5 16949.1 16949.1 0 0 1-5.6.4 2443 2443 0 0 0-9 0 47 47 0 0 0-7.4.6 74.4 74.4 0 0 1-6.4.6A501.4 501.4 0 0 1 561 39a81.6 81.6 0 0 1-7.7.6 81.4 81.4 0 0 1-9.6.9 168.2 168.2 0 0 1-24.8.6 718.6 718.6 0 0 1-13.7-.3 93.6 93.6 0 0 0-11.1.3 122.2 122.2 0 0 1-9.3-.4 378.9 378.9 0 0 1-8.1-.2 339 339 0 0 1-20.8-.2 95275.5 95275.5 0 0 1-60.9.3 503 503 0 0 0-33 1.5 257.2 257.2 0 0 0-19.6 1.6c-1.7 0-3.3.2-5 .3a130.2 130.2 0 0 1-10 .5 67.6 67.6 0 0 0-13.5 1.5 1273 1273 0 0 1-34.5 3.5l-7.5.5a165.3 165.3 0 0 0-14 1 96.3 96.3 0 0 1-9.9.6 204.5 204.5 0 0 0-10.8.7 160.2 160.2 0 0 0-12.5.8 257 257 0 0 0-24.3 1.5l-3.6.2a688.6 688.6 0 0 0-28.3 0 230.8 230.8 0 0 0-13.1.8 281.5 281.5 0 0 0-45.9 5A1274.4 1274.4 0 0 1 97.1 62l-5.4.9c-2 .3-4.1.6-6.4.7a155.5 155.5 0 0 0-10 .9A2.7 2.7 0 0 1 75 59Z"/>
</svg>
