<svg xmlns="http://www.w3.org/2000/svg" stroke-linecap="round" stroke-linejoin="round" opacity="70%" viewBox="4428.295 1552.387 822.125 484.363">
  <style>
    @keyframes spin {
      to {
        transform: rotate(360deg);
      }
    }

    @keyframes toneArmMovement {
      from {
        transform: rotate(-10deg);
      }
      to {
        transform: rotate(5deg);
      }
    }

    .animate-spin-33rpm {
      animation: spin 1.8s linear infinite;
    }

    .tone-arm-animation {
      animation: toneArmMovement 60s cubic-bezier(0.5, 0, 1, 1) forwards;
    }
  </style>

  <path d="m4460.992 1974.353.015-1.268-.003-3.2.265-4.376.84-4.601 1.224-4.12 1.204-3.838 1.24-3.978 1.403-4.057 1.564-3.923 1.53-3.661 1.355-3.435 1.334-3.363 1.295-3.287 1.326-3.216 1.328-3.107 1.287-3.134 1.302-3.313 1.047-3.759.536-4.172.654-4.777 1.412-5.341 1.838-5.689 1.715-5.236 1.658-5.147 2.145-6.818 2.518-7.76 2.41-7.166 2.08-5.939 1.672-4.816 1.828-4.87 1.991-5.437 2.003-6.14 1.907-5.813 1.354-4.362 1.062-3.787 1.093-3.711 1.107-3.635 1.12-3.591 1.416-4.045 1.343-3.902 1.021-3.36.929-3.38.85-3.276.973-3.274 1.024-3.2 1.165-3.551 1.06-3.585.857-3.09 1.084-3.526 1.013-3.563 1-3.658 1.207-4.087 1.018-3.81.995-3.886 1.198-4.208 1.22-4.137 1.506-4.548 1.858-4.978 1.723-4.517 1.39-3.871 1.306-3.426 1.13-3.192 1.266-3.673 1.467-3.894 1.193-3.344 1.08-3.05 1.36-3.455 1.802-4.253 1.698-4.127 1.333-3.48 1.426-4.266 1.718-4.954 1.655-4.818 1.262-3.927 1.282-3.82 1.582-5.074 1.557-5.199 1.31-4.64 1.186-4.34 1.136-3.98 1.14-3.487 1.264-3.692 1.14-3.47 1.039-3.24.895-3.117.91-3.26 1.121-3.779 1.014-3.388.9-3.224.924-3.377.901-3.081 1.05-3.202.99-3.147.95-3.13.563-1.742a3.575 3.575 0 0 1 6.825 2.126l-.635 2.119-1.198 3.777-1.16 3.351-1.03 3.278-.867 3.23-.885 3.392-.887 3.232-.986 3.164-1.006 3.076-.897 2.796-1.019 3.054-1.198 3.183-1.114 2.845-1.09 2.82-1.207 3.046-1.283 3.451-1.298 4.223-1.39 4.467-1.589 4.815-1.223 4.09-1.28 3.832-1.368 3.761-.97 2.784-1.452 3.736-2.017 4.654-1.577 3.68-1.212 2.922-1.42 3.446-1.592 4.16-1.591 4.326-1.348 3.44-1.249 2.957-1.318 3.257-1.382 3.805-1.311 3.835-1.355 3.223-1.441 3.194-1.449 3.857-1.624 4.516-1.69 4.887-1.394 4.45-1.117 4.095-1.038 4.178-.961 3.952-1 3.86-1.028 4.1-.947 3.716-.99 3.696-1.03 3.54-.974 2.972-1.034 3.756-1.106 3.639-1.09 3.085-1.045 3.107-.986 3.273-1.075 3.488-1.186 3.355-1.34 3.905-1.352 4.013-1.22 3.542-1.225 3.568-1.224 3.622-1.225 3.78-1.428 4.38-1.88 5.81-2.01 6.268-1.948 5.46-1.733 4.807-1.587 4.852-1.945 5.931-2.228 7.163-2.27 7.746-1.833 6.884-1.24 5.229-1.158 5.313-1.088 5.573-.789 4.98-.405 4.297-.148 3.379-.525 2.926-1.142 2.878-1.534 3.513-1.534 3.586-1.426 3.26-1.45 3.443-1.366 3.36-1.337 3.25-1.432 3.504-1.462 3.372-1.4 3.429-1.35 3.847-1.303 4.195-1.278 4.057-1.084 3.445-.691 3.57-.254 3.87-.003 3.2.015 1.267a3.222 3.222 0 0 1-6.443 0Z"/>
  <path d="m4584.464 1591.78 1.63.049 3.661-.274 3.476-.564 3.042-.374 4.005-.278 4.228-.226 3.42-.29 3.279-.3 3.143-.294 3.594-.45 3.587-.325 3.017-.265 3.354-.404 3.918-.446 4.75-.434 4.927-.52 5.193-.422 4.788-.278 4.972-.366 5.507-.401 4.623-.333 4.419-.172 4.035-.13 3.515-.268 3.514-.299 3.593-.182 3.79-.073 3.896-.021 3.722-.033 3.859.003 3.558-.03 3.166-.08 3.466-.154 3.715-.203 3.713-.127 3.426-.103 3.271-.084 3.186-.066 3.138-.053 3.112-.042 2.896-.055 4.123-.08 5.448-.197 4.217-.232 2.892-.138 4.134-.11 5.389-.088 5.316-.047 5.497-.007 4.277.014 4.846.098 5.322.147 3.372.032 4.149.095 4.945.202 4.297.108 4.482.239 4.016.243 3.291.173 3.374.217 3.439.244 3.286.236 3.202.241 3.149.247 3.018.111 3.334.211 3.23.233 3.061.108 3.066.05 2.878-.002 4.787.164 5.435.315 4.194.25 4.17.157 3.56.012 2.969-.078 3.906-.133 5.059-.15 5.043-.11 4.679-.1 4.154-.101 3.6-.1 3.26-.09 3.572-.096 3.857-.099 3.624-.047 4.524.077 5.155.098 4.833.042 4.051.172 3.506.203 3.33.043 3.174.088 3.528.086 3.255.118 3.128.173 3.462.057 3.672.026 3.726.015 3.747.01 3.735.17 3.522.209 3.476.17 3.317.205 3.182.101 3.498.04 3.685.02 3.739.014 4.415.061 4.035.103 3.899.067 4.936.04 4.718.011 3.669-.049 3.004-.091 3.1-.096 3.29-.075 3.768-.048 3.99-.033 3.678-.034 3.175-.037 3.15-.043 3.4-.038 3.338-.032 3.178-.039 3.057-.043 3.273-.028 3.137-.015 2.815-.011 2.898.118 3.29.315 3.236.179 2.965-.018 2.964-.009 3.238.007 1.806.009a3.905 3.905 0 0 1 0 7.81l-2.029.007-3.569.006-2.997-.012-2.879-.045-2.99-.195-3.046-.308-2.887-.152-2.815-.012-3.137-.015-3.273-.028-3.057-.043-3.178-.04-3.338-.03-3.4-.04-3.15-.042-3.175-.036-3.678-.035-3.99-.033-3.768-.048-3.29-.075-3.1-.096-3.004-.091-3.669-.05-4.718.012-4.937.04-3.899.066-4.035.103-4.418.06-3.75.007h-3.719l-3.636-.034-3.595-.143-3.234-.227-3.275-.17-3.459-.221-3.486-.162-3.75.007-3.74.005-3.728-.007-3.68-.057-3.714-.226-3.819-.273-3.635-.29-3.391-.285-4.171-.23-4.947-.112-4.833.042-5.155.098-4.524.077-3.624-.047-3.857-.099-3.572-.096-3.26-.09-3.6-.1-4.155-.101-4.68-.102-5.046-.113-5.068-.164-3.918-.154-2.981-.112-3.582-.05-4.227.042-4.32.04-5.382-.087-4.67-.13-2.926-.082-3.168-.099-3.228-.166-3.168-.27-3.264-.226-3.208-.207-3.133-.339-3.173-.34-3.262-.337-3.434-.325-3.36-.342-3.183-.36-3.898-.243-4.348-.076-4.297.108-4.945.202-4.149.095-3.372.032-5.322.147-4.845.099-4.275.016h-5.49l-5.294-.02-5.317-.001-5.4.097-5.707.211-5.685.074-4.12-.075-2.893-.05-3.104-.03-3.125-.03-3.162-.027-3.234-.01-3.362.03-3.592.119-3.812.25-3.64.142-3.163-.073-3.552-.018-3.847.027-3.702.01-3.851.06-3.71.074-3.456.089-3.567.199-3.627.153-3.927.148-4.227.34-4.538.607-5.433.834-4.943.772-4.62.782-5.262.854-5.155.73-4.671.59-3.949.497-3.547.405-3.648.239-3.397.194-3.142.295-3.18.171-3.317.155-3.56.129-4 .07-4.96.484-5.344.757-4.26.408-1.631.05a3.098 3.098 0 0 1 0-6.197Z"/>
  <path d="m5098.33 1590.764-.014 1.293.002 3.316.013 4.236-.004 4.355-.038 3.636.082 3.634.162 3.678.525 4.297 1.16 5.312 1.491 4.688 1.359 3.869 1.198 3.453 1.195 3.168 1.472 3.709 1.758 4.472 1.27 3.898.955 3.614 1.2 4.176 1.55 4.91 1.903 5.268 2.12 5.49 2.136 5.644 2.072 5.285 1.823 4.301 1.531 3.347 1.942 3.891 1.926 3.708 1.446 2.709 2.122 3.976 2.104 3.918 1.387 2.6 1.298 2.915 1.286 2.915 1.317 2.989 1.26 3.119 1.188 3.101 1.154 3.093 1.117 2.847 1.022 2.845 1.334 3.934 1.517 4.685 1.539 5.002 1.56 4.711 1.225 3.537 1.055 3.191 1.002 3.373.992 3.661.975 3.733.895 4.209.79 4.452.75 4.5.506 4.003.451 4.096.605 4.53.557 3.817.613 3.363.696 3.354.69 3.166.751 2.932.854 3.053.929 2.9 1.244 3.452 1.496 3.916 1.653 4 1.552 3.822 1.35 3.383 1.348 3.103 1.704 3.383 2.027 3.676 1.862 3.371 1.654 3.305.944 3.31.202 4.138-.059 4.132.016 3.714.463 4.704.704 5.038.662 4.201.666 3.685.651 3.401.74 2.937.796 2.793.724 2.808 1.118 3.796 1.577 4.711 1.66 4.438 1.655 4.128 1.508 3.684 1.402 3.283 1.465 3.2 1.444 2.921 1.382 2.654 1.486 2.731 1.635 2.892 1.715 3.09 1.68 3.337 1.703 3.216 1.668 2.846 1.583 2.721 1.51 2.563 1.36 2.884 1.193 3.36.85 3.106.734 2.724.808 2.77.788 2.83.5 4.353.079 2.968a3.908 3.908 0 0 1-7.617-1.75l.143-.691-.306-2.118-.844-3.014-.823-2.962-.762-3.118-.815-3.544-1.286-3.304-1.488-2.762-1.472-2.627-1.618-2.848-1.583-3.115-1.301-2.93-1.348-2.84-1.614-3.154-1.66-3.14-1.452-2.919-1.266-2.867-1.46-3.247-1.432-3.474-1.323-3.662-1.432-4.062-1.46-4.435-1.42-4.789-1.374-5.252-.965-4.167-.684-2.945-.66-3.176-.588-3.41-.681-3.671-.884-4.15-1.207-5.14-1.088-5.165-.507-5.213-.123-4.716-.527-3.245-1.21-2.935-1.616-3.273-1.986-3.941-1.75-3.54-1.596-3.086-1.704-3.275-1.771-3.747-1.89-4.359-1.603-3.984-1.298-3.571-1.022-3.327-.824-3.187-.756-3.356-.612-3.237-.608-3.436-.561-3.748-.45-3.845-.56-4.456-.572-4.022-.599-3.732-.784-4.46-.784-4.296-.807-3.833-.906-3.721-.883-3.618-.84-3.335-.824-3.13-.986-3.538-1.024-3.392-1.19-3.856-1.328-4.734-1.427-4.971-1.369-4.093-1.095-2.903-1.146-3.042-1.169-3.015-1.203-2.951-1.343-2.998-1.852-4.163-1.78-3.91-2.005-3.994-2.088-4.171-1.871-4.05-1.656-3.96-1.128-2.933-1.37-3.429-1.837-4.363-2.198-5.27-2.275-5.536-2.354-5.463-2.238-5.27-1.977-4.87-1.649-4.203-1.228-3.567-1.226-3.752-1.517-4.374-1.297-3.586-1.338-3.159-1.95-4.68-1.819-5.277-1.158-3.988-.752-3.095-.721-4.512-.53-5.433-.161-3.946-.037-3.636-.005-4.354.013-4.237.002-3.316-.014-1.293a3.18 3.18 0 0 1 6.361 0Z"/>
  <path d="m5217.196 1986.034-1.252.02-2.947-.016-3.81-.004-4.924.148-5.692.405-6.887.61-8.484.645-8.366.636-7.84.625-6.93.481-5.403.256-4.353.191-3.78.18-4.503.058-4.454.136-3.65.258-3.45.193-3.685.223-3.692.283-3.226.363-3.381.34-3.449.323-3.272.335-3.178.338-3.35.314-3.525.173h-4.011l-3.89-.01-3.823-.008-3.794-.009-3.521.04-4.23-.076-4.014-.03-4.178-.023-4.44-.054-4.3-.04-4.228-.02-3.708.06-4.106-.022-4.977-.09-5.881-.066-6.478-.048-5.89-.035-4.607.017-4.67.013-4.709.003-3.968.061-3.992.042-4.004.029-3.784.058-3.666.06-4.082-.025-4.307-.054-3.949.022-4.785-.025-5.044-.063-4.15.003-3.865.05-3.71.063-3.626.06-3.58.051-3.554.044-3.34.06-3.222.063-3.16.057-3.606-.029-3.85-.051-3.499.02-3.734-.022-3.49.012-3.359.03-3.66-.011h-3.598l-3.793-.033-3.896-.041-4.206-.08-4.603-.13-4.334-.054-4.189-.018-4.34-.043-4.422-.047-4.462-.043-3.882.055-4.08.037-4.188.017-3.74.063-3.869.031-4.47-.027-5.992-.087-6.054-.063-5.124-.046-4.85-.034-5.729-.024-6.507-.18-5.437-.264-5.13-.32-5.43-.501-4.608-.503-4.66-.56-5.062-.509-4.83-.43-4.934-.385-5.246-.373-5.425-.367-5.745-.198-6.252-.109-6.565-.235-6.412-.301-6.274-.163-6.524-.089-6.442-.21-6.348-.273-6.006-.147-4.906-.057-5.14-.027-5.268-.035-4.276.019-4.158.038-4.158-.096-4.09-.172-3.998-.08-3.785.002-3.465.056-3.293.075-3.197.074-3.146.067-3.12.058-3.105.049-3.093.04-2.89.056-2.895-.071-3.275-.305-3.41-.422-4.314-.455-5.262-.624-4.57-.604-3.958-.556-3.695-.704-3.172-.46-2.844-.244-2.94-.14-3.119.042-3.41.05-3.489.042-3.462.035-3.647.023-3.318.007-3.286.005-3.572.017-3.23.003-3.416-.003-3.788.007-3.5.012-3.455.012-3.396.012-3.371.008-3.712-.002-3.617-.028-3.722-.064-3.521-.037-3.071-.005-3.42.01-3.33.043-3.188.058-3.47.043-3.699.024-3.677.006-3.608-.007-4.112-.144-4.272-.534-3.97-.63-3.565-.444-3.084-.318-3.137-.32-3.762-.387-3.72-.36-3.263-.388-3.02-.507-3.217-.518-1.85-.214a3.751 3.751 0 0 1-.017-7.502l1.104.005 2.534.33 3.014.647 3.286.65 3.366.532 3.116.277 2.954.255 3.245.296 4.015.389 4.08.465 3.376.491 3.312.384 3.587.075 3.608-.007 3.677.006 3.7.024 3.47.043 3.188.058 3.33.044 3.419.01 3.07-.005 3.522-.037 3.722-.065 3.617-.028 3.712-.002 3.371.009 3.396.011 3.456.012 3.5.013 3.787.006 3.417-.003 3.229.003 3.572.017 3.904.009 3.93.01 3.582.027 3.466.038 3.52.048 3.428.073 3.294.166 3.062.376 2.87.516 3.09.697 3.434.85 3.695.751 3.386.563 3.675.651 3.703.568 3.052.358 4.545.503 4.433.317 2.889.056 3.094.043 3.106.052 3.124.064 3.151.078 3.208.093 3.309.112 3.49.124 3.828.125 4.089.149 4.025.248 4.03.18 4.163.053 4.28.044 5.287.013 5.161.061 4.934.105 6.072.149 6.314.272 6.374.206 6.566.088 6.345.162 6.374.297 6.503.228 6.312.104 5.857.195 5.433.355 5.275.358 4.968.363 4.864.401 5.18.475 4.628.611 4.503.568 5.316.479 5.085.298 5.37.236 6.415.143 5.73-.024 4.849-.034 5.124-.046 6.054-.063 5.992-.086 4.47-.028 3.868.032 3.74.062 4.19.017 4.08.037 3.881.055 4.462-.043 4.422-.047 4.34-.042 4.189-.019 4.334-.054 4.603-.129 4.206-.08 3.896-.042 3.793-.032h3.598l3.66-.013 3.358.032 3.49.01 3.735-.02 3.499.02 3.85-.052 3.606-.029 3.16.057 3.221.063 3.34.06 3.556.044 3.58.052 3.625.06 3.71.062 3.865.05 4.15.004 5.044-.064 4.785-.025 3.948.022 4.308-.054 4.082-.025 3.666.06 3.784.058 4.004.03 3.992.041 3.968.061 4.709.003 4.67.013 4.607.018 5.89-.035 6.478-.049 5.881-.066 4.976-.09 4.106-.022 3.709.06 4.227-.02 4.3-.041 4.44-.056 4.177-.025 4.012-.035 4.224-.084 3.515.025 3.777-.037 3.8-.059 3.835-.105 3.894-.173 3.327-.146 3.34-.274 3.206-.245 3.293-.244 3.448-.256 3.386-.235 3.305-.201 3.777-.261 3.785-.198 3.373-.001 3.711-.1 4.546-.128 4.461-.033 3.738.013 4.295-.114 5.32-.308 6.876-.554 7.838-.732 8.34-.78 8.372-.833 6.898-.883 5.78-.78 5.105-.614 3.992-.323 2.947-.015 1.252.02a2.793 2.793 0 0 1 0 5.585Z"/>
  <path d="M5065.485 1911.519v1.049l-.005 3.23.11 3.725.323 3.081.584 3.24.675 3.628.815 4.33.8 4.532.522 3.628.492 2.984.602 3.16.72 3.247-.852.431.388-1.6 3.33-.606 3.787-.338 3.558-.396 3.07-.286 2.967-.35 2.783-.476 2.8-.526 2.761-.81 2.7-.89 2.73-.77 3.242-.771 3.329-.588 2.964-.443 3.3-.45 3.424-.374 3.328-.385 3.424-.56 3.456-.547 3.433-.48 3.171-.473 3.023-.323 2.993-.2 2.953-.071 2.936-.02 2.943-.011.554 1.501-2.308.24-1.84-2.607-.684-2.853-.37-2.943-.553-3.064-.604-3.293-.487-3.1-.64-3.002-.684-3.162-.509-3.091-.434-3.012-.62-2.961-.832-3.124-.738-3.441-.64-3.22-.651-2.836.692-.214-.688 1.23-3.392.478-3.106.686-3.48.569-3.709.355-3.237.283-3.609.289-3.668.243-3.08.257-3.395.317-3.393.445-2.984.294-3.58.396-3.831.504-3.26.26-2.89.231-3.259.363-3.416.232-3.168.2-3.233.256-3.792.337-3.605.326-3.184.248-1.714-1.825.775-.635 1.64 2.546 1.425 2.534.932 2.671.338 1.323a3.881 3.881 0 0 1-7.486 2.056l-.948-2.352-1.783-3.743-1.346-3.285.023-3.32 2.194-2.245 3.143-1.024 2.919-.336 2.984-.185 3.054-.246 3.617-.351 3.811-.341 3.144-.213 2.894-.216 2.999-.342 3.22-.206 3.323-.216 3.137-.368 3.1-.359 3.085-.357 3.138-.422 3.505-.369 3.253-.224 3.015-.242 3.658-.404 3.79-.403 3.212-.38 3.063-.439 3.232-.559 3.356-.64 3.559-.291 3.305.55 2.27 1.924 1.174 3.324.758 3.467.765 3.272.905 3.68.86 3.296.512 3.036.475 3.592.77 3.837.82 3.412.549 3.23.642 3.816.464 3.582.707 3.21 1.788 3.07 1.444 2.806-.437 3.018-2.405 2.116-3.18.534-2.956-.01-2.858-.015h-2.91l-2.916.146-2.972.31-2.927.283-3.42.427-3.408.512-3.359.499-3.45.477-3.19.373-3.256.43-3.64.49-3.643.656-3.42.897-3.447 1.043-3.055.845-3.197.643-3.155.507-3.337.33-3.528.373-3.062.398-2.9.295-3.342.433-3.577.496-2.943-.544-1.767-2.214-.75-2.916-.578-3.41-.534-3.55-.39-3.328-.445-3.963-.628-3.764-.64-3.363-.665-3.685-.589-3.584-.285-3.622-.105-4.118-.005-3.23v-1.05a3.265 3.265 0 0 1 6.53 0Z"/>
  <path d="m4754.137 1776.961.798-.71 2.242-1.272 3.681-.182 3.009 1.644.293 3.492-1.955 2.907-3.43.607-3.628-1.104-1.677-1.03a3.803 3.803 0 0 1 5.19-5.56l.395.298-.59 1.716.24 2.45.632 1.533-.592.5a3.507 3.507 0 0 1-4.608-5.289Zm1.778-2.229.842-.036.843-.036a3.808 3.808 0 0 1 .301 7.611l-.843.031-.842.03a3.803 3.803 0 0 1-.301-7.6Z"/>
  <path d="m4463.832 1969.99-.006.896.026 2.547.07 3.108.068 3.075.057 3.375.046 3.241.02 1.487a3.817 3.817 0 0 1-7.636 0l.02-1.487.045-3.241.057-3.375.069-3.075.07-3.108.026-2.547-.006-.896a3.537 3.537 0 0 1 7.074 0Zm-3.027 13.946 1.137.186 4.147.4 4.6.298 3.426.081 3.571-.013 3.414-.055 3.34-.075 3.323-.06 3.32-.047 3.58-.046 3.33-.042 3.013-.035 3.568-.029 3.427-.016 3.217-.017 3.376-.01 3.138.172 3.057.47 3.424.846 3.693 1.124 3.72 1.176 3.377.903 3.358.848 3.371.738 2.948.444 3.055.473 3.75.493 4.105.387 3.551.347 3.004.296 3.05.248 3.09.27 2.897.31 3.247.288 3.298.241 3.365.261 3.486.09h3.14l3.07.01 3.347.046 3.626.053 3.755.18 4.034.264 4.207.12 3.976.004 3.586-.024 3.552-.02 3.51.007 3.22.02 3.191.014 3.185.012 3.084.004 3.53.182 3.895.318 3.36.338 3.377.326 4.018.31 3.94.29 3.69.333 4.515.551 4.056.405 3.416.109 3.785.155 3.495.188 3.563.039 3.44-.023 3.257-.01 3.398-.003 3.441-.001h3.454l3.454-.001 3.164-.013 2.977-.018 3.428-.027 3.648-.038 3.569-.031 3.264-.015 2.914.001 3.193.014 3.924.056 4.24.064 3.445.068 3.747.074 4.079.01 3.45-.03 3.455-.024 3.353-.023 3.238-.023 3.393-.013 3.146-.019 2.886-.027 2.996-.018 3.216-.005 3.804.031 4.437.069 4.511.055 4.178.016 3.962-.002 3.607-.02 3.46-.017 3.661-.004 3.907.01 4.995.104 4.695.167 3.403.118 3.235.072 3.333.072 4.333.013 4.719-.084 4.12-.098 3.65-.092 3.22-.086 3.503-.093 3.94-.093 3.958-.068 3.429-.041 3.57-.028 3.835-.006 3.748.03 3.954.03 3.884.019 3.876.014 3.87.011 4.664.081 4.236.12 3.89.049 4.738-.112 4.112-.148 4.228-.328 4.3-.302 3.325-.166 4.078-.37 4.767-.445 4.497-.442 3.73-.49 3.219-.448 3.33-.629 2.931-.537 2.867-.092 3.348-.048 3.737-.046 3.546-.039 3.354-.034 3.218-.029 3.096-.032 3.622.442 3.716.91 3.024.74 3.381.797 4.025 1.025 3.585.824 3.326.392 3.374.324 3.112.215 3.008-.028h7.192l3.311.002 3.497.02 3.7.022 3.4.007 3.58.012 4.248.04 3.87.042 3.436.014 3.845-.002 3.687-.007 3.67-.005 4.018.008 3.557.013 3.015.015 2.928.01 3.493.003 3.768.015 3.219.02 3.755.007h8.026l3.302.018 3.415.02 3.441.244 3.263.297 2.922.074 3.476.012 3.857-.018 3.298-.014 3.674.003 4.05.026 3.097.061 1.294.04a3.458 3.458 0 0 1 0 6.915l-1.294.04-3.097.061-4.05.026-3.675.003-3.304-.016-3.89-.034-3.587-.042-3.262-.098-3.154-.287-3.066-.207-3.408.02-3.302.017h-8.026l-3.755.008-3.22.02-3.767.015-4.19.004-3.621.01-2.99.015-3.52.012-3.906.005-3.618-.007-3.645-.009h-3.864l-3.84.034-3.906.048-3.865.022-3.496.01-3.51.012-3.665.023-3.668.012-3.385.004h-3.2l-3.229-.018-3.349-.112-3.319-.274-3.18-.29-3.907-.548-3.634-.822-2.906-.785-3.013-.782-2.95-.765-3.185-.782-3.243-.586-3.09-.196-3.078-.03-3.19-.034-3.441-.037-3.168-.027-3.092-.03-3.907.082-3.742.341-3.053.246-3.16.211-3.678.309-4.511.308-4.855.327-4.13.364-4.506.432-4.25.405-3.08.341-4.256.31-5.05.185-3.89.048-4.236.12-4.664.081-3.87.011-3.876.015-3.884.019-3.954.03-3.748.03-3.836-.007-3.57-.027-3.428-.041-3.958-.068-3.94-.093-3.503-.094-3.22-.086-3.65-.092-4.12-.097-4.72-.085-4.332.013-3.333.073-3.235.071-3.403.119-4.695.166-4.995.105-3.907.01-3.66-.004-3.461-.018-3.607-.019-3.962-.002-4.178.016-4.511.055-4.437.068-3.803.032-3.217-.005-2.997-.018-2.885-.027-3.146-.02-3.393-.012-3.238-.024-3.353-.023-3.455-.023-3.45-.03-4.08.01-3.746.074-3.444.068-4.241.064-3.924.056-3.193.014h-2.914l-3.264-.014-3.57-.032-3.647-.037-3.427-.028-2.978-.018-3.164-.012h-3.454l-3.454-.001-3.443-.002-3.402-.006-3.274-.016-3.529-.07-3.402-.157-3.45-.348-4.034-.31-3.583-.077-4.195-.217-5.369-.476-4.591-.478-4.124-.261-4.462-.239-4.591-.287-3.769-.22-2.958-.11-3.084.005-3.185.012-3.191.014-3.22.02-3.51.006-3.556-.02-3.6-.032-4.06-.043-3.796-.088-3.069-.246-3.12-.174-3.798.058-3.653.06-3.233.012-3.367-.014-3.447-.06-3.353-.291-3.463-.29-3.705-.204-3.314-.321-3.24-.371-3.387-.265-3.83-.268-4.123-.353-3.374-.306-3.577-.458-3.729-.57-3.032-.573-2.934-.773-3.047-.8-3.285-.891-3.218-.983-3.223-.83-3.517-.883-3.188-.646-3.04-.178-3.375-.01-3.217-.018-3.427-.015-3.568-.03-3.013-.035-3.33-.041-3.58-.047-3.32-.047-3.324-.06-3.344-.077-3.426-.061-3.587-.035-3.45.045-3.295.14-3.197.114-2.932-.125-1.424-.16a3.817 3.817 0 0 1 1.021-7.566Z"/>
  <path d="m5137.36 2001.577 1.322.017 3.91.039 4.717.002 4.287-.03 4.31-.016 3.806-.04 3.695-.08 3.923-.088 4.074-.06 3.63-.032 3.05-.058 3.182-.09 3.182-.075 3.029-.04 3.233-.005 3.476.005 3.103.013 2.92-.216 3.052-.471 3.112-.528 3.397-.601 3.534-.569 1.14-1.678-1.068-3.164-.953-3.244-.51-3.078 1.084-.305.481 1.458-.693.19a3.937 3.937 0 0 1 1.79-7.666l1.398.678 2.211 2.603 1.493 3.962 1.106 3.623.97 3.386.504 3.232-.426 2.83-1.682 2.396-3.386 1.571-4.029.801-3.42.517-3.001.547-3.122.491-3.017.44-2.87.217-3.118.013-3.476.005-3.233-.006-3.029-.039-3.182-.075-3.182-.09-3.05-.058-3.63-.033-4.074-.06-3.923-.087-3.695-.08-3.806-.04-4.31-.017-4.287-.03-4.716.003-3.91.039-1.323.017a3.173 3.173 0 0 1 0-6.346Z"/>
  <path d="m5039.983 1779.119 1.174.013 2.852-.007 3.093-.043 3.43-.056 3.682-.036 3.719.013 4.432-.022 4.086-.14 3.358-.142 3.251-.085 3.21-.222 3.016-.374 2.806-.232 2.822-.025 1.42.01a3.701 3.701 0 0 1 0 7.401l-2.277-.007-3.716.017-3.549.152-3.677.098-3.125-.02-3.148.067-4.224.212-4.685.17-3.719.012-3.683-.036-3.43-.056-3.092-.043-2.852-.007-1.174.013a3.313 3.313 0 0 1 0-6.625Z"/>
  <path d="m5024.337 1624.473-.022 1.441-.004 3.745.001 3.7-.04 4.113-.037 4.153.021 3.585.087 3.656.116 3.455.464 3.593.95 3.868.813 3.727.59 3.085.88 3.072 1.133 2.962.887 2.924.306 1.454a3.803 3.803 0 0 1-7.47 1.434l-.132-1.635-.787-3.191-1.088-3.008-.639-2.874-.583-3.537-.816-3.975-.695-3.901-.189-3.993.116-3.46.087-3.656.021-3.585-.037-4.153-.04-4.113.001-3.7-.004-3.745-.022-1.441a3.066 3.066 0 0 1 6.132 0Zm-1.386 53.008.002-.052.002-.053a3.806 3.806 0 0 1 7.596.484l-.004.052-.005.052a3.803 3.803 0 0 1-7.591-.483Zm2.561-3.46 1.43-.435 2.939-.6 3.35-.456 3.362-.466 3.195-.203 3.266-.039 3.13-.11 2.987-.167 1.13 1.327-1.17.17-1.374-2.658-.872-2.845-.454-2.977-.212-3.505-.143-3.639-.175-3.275-.02-4.119.146-4.387-.14-3.37-.356-3.205-.381-3.439-.537-3.558-.564-3.57-.371-3.235-.452-2.853.956-.67-.11 1.384-3.23 1.191-3.7 1.062-3.333.602-3.06.214-3.046.325-3.085.332-2.718.15-1.124-.008a3.926 3.926 0 0 1-.03-7.852l1.932-.063 3.349-.192 3.347-.414 3.593-.32 2.999-.468 3.063-.938 3.228-1.035 3.307-.584 2.852.893 1.645 2.972.948 3.877.41 3.247.383 3.361.47 3.48.29 3.016.258 2.926.257 3.15.169 3.575.15 3.544.174 3.344.199 3.39.312 3.295.186 3.26.262 3.082.998 2.915 1.41 2.84.786 2.782-.57 2.809-2.75 1.924-3.458.593-2.863.133-2.9.128-2.857-.01-3.034.034-3.196.314-2.982.425-2.844.269-1.856.322-.42.203a3.806 3.806 0 0 1-2.48-7.196Z"/>
  <path d="m5064.559 1742.936.006 1.118-.019 3.127.182 4.03.367 4.781.252 4.337.256 3.813.233 5.054.206 5.687.325 5.211.348 4.268.394 3.505.506 3.028.556 2.83.698 3.65.825 4.321.82 3.828.873 3.429 1.093 3.33 1.33 3.493 1.38 3.468 1.366 3.183 1.35 3.077 1.293 2.868 1.152 2.683 1.357 3.193 1.548 3.727 1.161 3.369.754 2.956.604 3.38.292 1.899a3.713 3.713 0 0 1-7.35 1.053l-.207-2.36-.577-3.944-.894-3.13-1.16-3.198-1.442-3.686-1.447-3.521-1.264-3.034-1.239-3.06-1.299-3.311-1.342-3.669-1.257-3.717-.988-3.68-.711-3.889-.543-3.996-.428-4.228-.406-3.728-.384-2.974-.339-3.218-.28-3.54-.454-4.247-.656-5.28-.617-5.483-.793-4.95-.7-4.04-.443-4.41-.42-4.783-.127-4.225.058-3.28.007-1.115a3.097 3.097 0 0 1 6.194 0Z"/>

  <g style="transform-origin: 5035px 1640px;" class="tone-arm-animation">
    <path d="M4813.424 1854.747a3.182 3.182 0 1 1 6.364 0 3.182 3.182 0 1 1-6.364 0"/>
    <path d="m4819.61 1850.569.76.639 2.052 1.966 1.294 1.327a3.474 3.474 0 0 1-5.258 4.543l-.934-1.119-1.628-1.784-.693-.664a3.299 3.299 0 0 1 4.408-4.909Z"/>
    <path d="m5034.787 1645.57-.748.248-2.091 1.317-2.668 2.225-2.509 2.308-2.443 2.413-2.412 2.285-2.317 2.126-2.379 2.493-2.249 2.466-2.338 2.417-2.691 2.707-3.073 2.874-3.44 2.98-3.787 3.158-3.807 3.282-3.636 3.257-3.405 3.104-2.993 2.869-2.64 2.72-2.48 2.628-2.541 2.66-2.406 2.633-2.23 2.36-2.333 2.455-2.401 2.452-2.337 2.334-2.627 2.793-2.606 2.723-2.236 2.303-2.192 2.142-2.705 2.742-2.673 2.959-2.211 2.743-2.236 2.743-2.259 2.617-2.229 2.624-2.46 2.693-2.8 3.003-2.901 3.102-2.795 2.544-2.391 2.01-2.82 2.56-3.189 2.859-3.478 3.043-3.078 2.73-2.724 2.617-2.903 2.913-2.774 2.784-2.668 2.786-2.639 2.594-2.693 2.48-2.507 2.42-2.753 2.513-2.717 2.267-2.391 1.924-2.198 1.853-2.246 1.888-2.22 1.83-2.353 1.978-2.65 2.275-2.583 2.28-2.287 2.077-2.498 2.35-2.81 2.568-2.735 2.337-2.444 2.06-2.509 2.186-2.802 2.488-2.887 2.556-2.58 2.523-2.486 2.647-2.46 2.476-2.178 2.132-2.597 2.106-2.788 1.952-2.538 1.626-2.793 1.712-2.747 1.846-2.488 1.618-2.257 1.896-.958 1.09a3.922 3.922 0 0 1-6.866-3.792l.492-.898 1.527-2 2.579-1.99 2.822-1.817 2.494-1.713 2.413-1.571 2.682-1.642 2.671-1.66 2.307-1.79 2.307-2.013 2.253-2.208 2.138-2.243 2.242-2.18 2.46-2.26 2.346-2.096 2.174-1.898 2.393-2.07 2.45-2.112 2.495-2.102 2.583-2.289 2.656-2.461 2.82-2.63 2.691-2.455 2.51-2.091 2.589-2.072 2.585-2.092 2.39-1.952 2.737-2.158 2.755-2.152 2.58-2.164 2.904-2.494 2.846-2.391 2.484-2.195 2.193-2.155 2.47-2.297 2.691-2.445 3.005-2.885 2.764-2.705 3.054-2.896 3.452-3.068 3.126-2.728 3.871-3.636 3.564-3.56 2.84-3.151 2.728-3.038 2.363-2.616 2.025-2.349 2.156-2.487 2.428-3.035 2.33-2.928 2.29-2.605 2.675-2.658 2.59-2.436 2.228-2.237 2.654-2.844 2.845-3.14 2.79-2.823 2.877-2.795 2.72-2.738 2.29-2.28 2.442-2.518 2.596-2.695 2.621-2.59 3.033-2.909 3.3-3.022 3.564-3.323 3.679-3.43 3.704-3.337 3.422-3.126 2.925-2.838 2.615-2.723 2.723-2.869 2.418-2.653 2.134-2.309 2.37-2.353 2.409-2.283 2.6-2.555 2.796-2.596 2.717-2.199 2.844-1.962 2.558-1.24 1.015-.303a3.493 3.493 0 0 1 2.088 6.666Z"/>
    <path d="m4836.134 1833.452.078.943.813 2.303.279 3.146-2.214 3.085-2.638 2.384-2.03 1.919-2.637 1.864-3.006 1.98-2.762 1.85-2.308 1.852-2.056 2.102-.99 1.15a3.98 3.98 0 0 1-6.176-5.02l1.383-1.466 2.67-2.607 2.756-2.3 2.8-1.889 2.702-1.639 2.573-1.818 2.255-1.886 2.4-1.88 1.108.837-1.106.004-.98-3.017-.112-1.282a3.612 3.612 0 0 1 7.198-.615Z"/>
  </g>

  <g style="transform-origin: 4760px 1780px;" class="animate-spin-33rpm">
    <path d="m4884.468 1902.79-.647.866-1.77 2.49-2.228 2.979-2.372 2.678-2.378 2.414-2.32 2.005-2.726 1.953-3.11 2.08-3.09 1.812-3.424 1.7-3.649 1.807-3.592 1.698-3.391 1.537-2.847 1.288-3.212 1.292-3.313 1.196-2.946.937-3.136.955-3.606 1.286-3.51 1.308-3.047.942-4.127 1.118-4.864 1.29-3.72.934-3.671.834-3.875.897-3.526.717-3.522.512-3.692.479-3.76.533-3.153.378-2.955.226-3.598.137-3.99.055-3.58.032-3.43.04-3.552.186-3.776.336-3.797.369-3.219.382-3.422.392-3.458.484-2.863.492-3.336.5-3.731.668-3.737.626-3.718.49-3.301.301-3.176.076-3.232.036-3.368.02-3.568-.283-3.214-.683-3.024-.869-3.206-1.119-3.283-1.267-3.27-1.319-3.702-1.55-3.854-1.692-2.927-1.686-2.398-1.782-2.558-2.024-2.93-2.575-3.02-2.858-2.711-2.614-2.439-2.113-2.262-1.862-2.426-2.094-2.653-2.331-2.64-2.32-2.534-2.494-2.39-2.736-2.172-2.398-2.256-2.398-2.166-2.493-2.223-2.48-2.598-2.524-2.294-2.226-2.328-2.208-2.433-2.269-2.39-2.428-2.391-2.728-2.295-2.81-2.214-2.652-2.125-2.412-2.385-2.49-2.306-2.613-2.149-2.679-2.184-2.62-2.034-2.407-2.115-2.456-2.445-2.9-2.32-2.96-2.1-2.833-2.05-2.968-2.055-3.079-2.108-2.914-2.256-2.695-2.062-2.578-1.646-2.827-1.417-3.038-1.13-2.883-.908-2.958-.892-2.988-.938-2.945-.862-3.207-.932-3.377-1.269-3.46-1.44-3.432-1.016-2.249-.347-.662a3.908 3.908 0 0 1 7.03-3.416l.925 1.994 1.437 3.328 1.114 2.984 1.141 3.41 1.04 3.545 1.045 3.57 1.139 3.536 1.037 3.436 1.063 3.34 1.396 2.897 1.615 2.378 1.945 2.395 2.073 2.648 1.822 2.516 1.69 2.425 1.668 2.437 1.631 2.285 2.003 2.54 2.43 2.93 2.209 2.771 1.91 2.326 2.118 2.545 2.284 2.817 2.199 2.423 2.172 2.23 2.297 2.614 2.38 2.888 2.292 2.829 2.309 2.663 2.666 2.694 3.143 2.96 2.754 2.514 2.184 2.053 2.196 2.281 2.115 2.42 1.954 2.27 2.078 2.203 2.238 2.47 2.18 2.514 2.396 2.339 2.401 2.111 2.378 2.084 2.773 2.386 2.735 2.402 2.395 2.148 2.435 2.298 2.576 2.522 2.517 2.312 2.714 2.18 2.941 2.063 3.328 1.732 3.33 1.359 3.145 1.167 3.162 1.194 2.87 1 2.925.908 3.05.802 3.278.299 3.353.019 3.18.02 3.332-.041 3.426-.292 3.45-.473 3.236-.578 3.273-.613 3.753-.61 3.601-.568 3.145-.397 3.363-.417 3.602-.43 3.496-.325 3.22-.274 3.219-.113 3.245.04 2.916.02 3.26.01 3.668-.02 3.262-.15 3.239-.177 3.666-.244 4.145-.421 3.961-.46 3.624-.627 3.869-.798 3.355-.801 3.617-.986 3.546-1.005 3.768-1.202 3.818-1.412 3.452-1.55 3.938-1.568 3.232-1.072 2.708-.91 2.935-1.09 3.249-1.333 3.044-1.324 2.841-1.239 3.438-1.653 3.556-1.797 3.208-1.608 3.35-1.922 3.017-1.975 2.604-1.974 2.723-2.462 2.418-2.47 2.158-2.67 1.772-2.455.625-.88a3.45 3.45 0 0 1 5.576 4.06Z"/>
    <path d="m4583.8 1806.18.022-1.278.012-3.221-.017-3.907-.033-3.42-.06-3.551-.042-3.736.244-3.451.488-3.904.544-4.162.357-3.812.156-3.523.29-3.966.367-3.94.54-3.618.773-3.655.984-3.669 1.047-3.507.95-3.317 1.193-3.8 1.309-3.884 1.264-3.924 1.271-4.085 1.122-3.916.914-3.4.929-3.444 1.007-3.84.903-3.454.861-3.234 1.024-3.47 1.158-3.284 1.178-2.858 1.177-2.87 1.305-2.856 1.493-2.793 1.636-2.728 1.844-2.93 1.956-2.94 2.249-3.066 2.439-3.015 2.434-2.423 2.554-2.043 2.5-1.838 2.394-1.887 2.43-1.96 2.37-1.918 2.691-2.034 2.971-1.97 2.824-1.87 2.885-1.82 2.777-1.59 2.815-1.62 3.095-1.836 2.754-1.74 2.4-1.588 2.46-1.626 2.918-1.75 3.033-1.637 3.286-1.8 3.452-1.944 3.069-1.717 2.957-1.577 3.204-1.461 3.602-1.382 3.56-1.287 3.343-1.301 2.926-1.255 2.7-1.132 2.735-1.238 2.768-1.352 3.25-1.406 3.233-1.424 3.292-1.359 4.124-1.46 3.862-1.154 3.422-.847 3.25-.812 3.162-.903 3.313-1.087 3.311-1.144 3.114-1 3.534-.837 4.087-.648 4.187-.444 4.071-.232 4.037.03 3.824.033 3.748-.113 3.884-.159 3.942-.033 3.664.068 3.374.156 3.292.123 4.329.068 4.667.103 4.205.022 4.307.167 3.493.382 3.093.504 2.928.471 3.367.605 3.433 1.152 2.963 1.429 3.048 1.762 2.81 2.014 2.765 2.065 2.715 1.927 2.773 2.1 3.208 2.517 3.145 2.368 3.276 2.123 2.882 1.83 2.313 1.643 2.589 1.748 2.888 2.136 2.544 2.126 2.793 2.522 3.147 3.273 2.847 3.199 2.942 3.44 3.005 3.515 2.606 2.841 2.204 2.373 2.106 2.238 2.042 2.13 2.027 2.055 2.16 2.05 2.21 2.089 2.324 2.096 2.58 2.384 2.309 2.375 2.227 2.532 2.471 3.163 2.522 3.665 2.712 4.251 2.175 3.695 1.806 3.321 2.34 4.456 2.31 4.694 1.521 3.565 1.077 2.9 1.07 2.87.989 2.738 1.158 3.144 1.213 3.216 1.15 3.1 1.097 3.279.742 3.28.5 3.492.324 3.767.423 4.04.646 3.718.582 3.494.463 4.231.26 4.326.08 3.86.003 3.878-.028 4.06-.023 4.064-.094 4.868-.103 5.336.005 4.46.037 3.963.02 4.092.012 4.129.036 3.644.05 3.125.045 2.97.05 3.483-.058 4.096-.464 3.97-.922 3.861-.942 3.492-.72 3.064-.792 3.37-.882 3.149-1.122 3.346-1.387 3.57-1.25 2.96-1.343 2.934-1.507 2.85-1.906 2.682-2.15 2.439-2.18 2.383-2.107 2.721-1.995 3.136-1.997 3.054-1.992 2.815-2.296 3.144-2.398 3.075-2.331 2.814-2.635 2.867-2.55 2.64-2.172 2.411-1.97 2.468-1.694 2.398-1.387 2.027-.55.808a3.664 3.664 0 0 1-6.143-3.997l1.224-1.872 2.504-3.66 2.45-3.142 2.105-2.398 2.354-2.421 2.533-2.705 2.206-2.672 2.243-2.933 1.955-2.784 1.739-2.508 1.94-2.972 1.923-2.844 2.01-2.661 2.505-2.892 2.536-2.725 2.049-2.802 1.5-2.817 1.175-2.703 1.268-3.048 1.217-3.253.912-3.033.778-3.084.842-3.174.85-2.891.833-2.867.763-3.02.455-3.106.133-3.56.05-3.483.046-2.97.049-3.125.035-3.644.014-4.13.02-4.09.036-3.964.005-4.46-.072-4.004-.086-3.784-.058-4.487-.055-4.325-.033-3.767-.057-3.544-.195-3.766-.411-3.767-.624-3.895-.697-4.087-.46-3.774-.184-3.326-.215-3.224-.318-3.13-.52-2.848-.938-3.205-1.053-3.378-1.265-3.825-1.305-3.595-1.165-2.808-1.215-2.852-1.476-3.344-2.21-4.283-2.29-4.154-1.839-3.158-2.237-3.325-2.816-3.92-2.436-3.232-2.37-2.92-2.396-2.675-2.656-2.68-2.924-2.814-2.298-2.223-1.971-2.037-1.971-2.011-1.99-2.103-2.06-2.292-2.195-2.378-2.442-2.665-3.04-3.348-3.206-3.445-2.75-2.948-2.517-2.654-2.673-2.545-2.546-2.242-2.348-1.922-2.671-1.95-2.969-2.054-2.855-1.811-2.55-1.57-2.448-1.721-2.65-2.04-2.659-2.068-2.484-1.91-2.632-1.876-2.526-1.826-2.476-1.919-2.695-1.737-2.845-1.57-2.892-1.166-3.37-.786-3.574-.913-3.717-.886-4.53-.432-4.203.022-4.666.105-4.328.07-3.287.127-4.563.193-4.472.115-3.564.112-3.841.21-4.046.157-4.088.096-3.954.17-3.3.301-2.984.376-3.443.558-3.427.932-2.969.902-3.044.946-3.078 1.018-2.934.782-3.204.835-3.274.867-3.424 1.04-3.253 1.144-3.248 1.363-3.588 1.567-3.04 1.25-3.013 1.352-3.52 1.485-3.433 1.346-3.306 1.345-3.42 1.357-3.416 1.366-3.076 1.34-2.765 1.359-2.91 1.595-2.976 1.726-2.878 1.666-2.686 1.486-2.547 1.405-2.51 1.567-2.44 1.644-2.38 1.603-2.78 1.769-3.33 1.977-3.038 1.782-2.595 1.567-2.734 1.796-2.776 1.85-2.559 1.651-2.831 2.048-2.673 2.112-2.54 1.943-3.117 2.231-2.946 2.174-2.289 2.142-2.124 2.759-2.008 2.906-1.907 2.905-1.965 3.154-1.692 2.821-1.488 2.757-1.465 3.15-1.406 3.168-1.3 3.19-1.075 3.272-.926 3.182-.951 3.354-1.023 3.733-1.103 4.663-1.166 4.744-1.128 3.78-1.153 3.957-1.286 4.234-1.096 3.596-.9 3.42-.929 3.528-.963 3.847-.893 3.58-.582 3.102-.358 3.358-.358 3.188-.234 3.357-.23 3.4-.466 3.115-.486 3.322-.523 3.64-.332 3.542-.042 3.732-.06 3.552-.033 3.42-.017 3.906.012 3.22.022 1.28a3.299 3.299 0 0 1-6.598 0Z"/>
  </g>
</svg>

